# xmcd CD database file
#
# Track frame offsets:
#	150
#	24014
#	50191
#	78673
#	106174
#	112774
#	139612
#	145119
#	162402
#	186937
#	206239
#	238431
#
# Disc length: 3328 seconds
#
# Revision: 0
# Processed by: cddbd v1.5.2PL0 Copyright (c) Steve Scherf et al.
# Submitted via: CDex 1.51
#
DISCID=a70cfe0c
DTITLE=Oddjob - Clint
DYEAR=2010
DGENRE=Jazz
TTITLE0=The Good, The Bad And The Ugly
TTITLE1=Palancio
TTITLE2=Theme From Pale Rider
TTITLE3=Magnum Force Theme
TTITLE4=Where Eagles Dare
TTITLE5=Hang 'em High
TTITLE6=Musical Pocket Watch
TTITLE7=Robbery Suspect
TTITLE8=The Mayor
TTITLE9=Ecstasy Of Gold
TTITLE10=Scorpio's Theme
TTITLE11=Let's Do It
EXTD=YEAR: 2010
EXTT0=
EXTT1=
EXTT2=
EXTT3=
EXTT4=
EXTT5=
EXTT6=
EXTT7=
EXTT8=
EXTT9=
EXTT10=
EXTT11=
PLAYORDER=
